<svg xmlns="http://www.w3.org/2000/svg" width="9.689" height="9.689" viewBox="0 0 9.689 9.689">
  <g id="Analise_incorreta_icon" data-name="Analise incorreta_icon" transform="translate(-5.482 -4.482)">
    <path id="Caminho_78804" data-name="Caminho 78804" d="M288.321,194.051l2.122-2.122a.6.6,0,0,0,0-.849l-1.7-1.7a.6.6,0,0,0-.849,0l-2.122,2.122-2.122-2.122a.6.6,0,0,0-.849,0l-1.7,1.7a.6.6,0,0,0,0,.849l2.122,2.122-2.122,2.122a.6.6,0,0,0,0,.849l1.7,1.7a.6.6,0,0,0,.849,0l2.122-2.122,2.122,2.122a.6.6,0,0,0,.849,0l1.7-1.7a.6.6,0,0,0,0-.849Z" transform="translate(-275.448 -184.725)" fill="#f23e5d"/>
  </g>
</svg>
