<svg xmlns="http://www.w3.org/2000/svg" width="19.653" height="19.653" viewBox="0 0 19.653 19.653">
  <g id="IconErro" transform="translate(0.5 0.5)">
    <ellipse id="Elipse_615" data-name="Elipse 615" cx="9.327" cy="9.327" rx="9.327" ry="9.327" fill="#f23e5d" stroke="#f23e5d" stroke-width="1"/>
    <path id="Caminho_78804" data-name="Caminho 78804" d="M288.321,194.051l2.122-2.122a.6.6,0,0,0,0-.849l-1.7-1.7a.6.6,0,0,0-.849,0l-2.122,2.122-2.122-2.122a.6.6,0,0,0-.849,0l-1.7,1.7a.6.6,0,0,0,0,.849l2.122,2.122-2.122,2.122a.6.6,0,0,0,0,.849l1.7,1.7a.6.6,0,0,0,.849,0l2.122-2.122,2.122,2.122a.6.6,0,0,0,.849,0l1.7-1.7a.6.6,0,0,0,0-.849Z" transform="translate(-276.448 -184.725)" fill="#fff"/>
  </g>
</svg>
