<svg xmlns="http://www.w3.org/2000/svg" width="9.452" height="13.924" viewBox="0 0 9.452 13.924">
  <g id="Lamp_icon" transform="translate(-951.5 -733.134)">
    <g id="Grupo_55117" data-name="Grupo 55117" transform="translate(951.5 733.134)">
      <g id="Grupo_55119" data-name="Grupo 55119" transform="translate(0)">
        <path id="Caminho_78800" data-name="Caminho 78800" d="M8.205,1.546A4.907,4.907,0,0,0,6.907.515a4.558,4.558,0,0,0-1.864-.5C4.917,0,4.79,0,4.666,0A4.549,4.549,0,0,0,1.41,1.381a4.521,4.521,0,0,0-1.4,3.567A5.846,5.846,0,0,0,1.376,7.933l.024.033c.1.139.207.275.319.42a7.128,7.128,0,0,1,.976,1.519l.03.068a1.97,1.97,0,0,1,.223.7.365.365,0,0,1-.115.228.4.4,0,0,0-.111.427c.08.3.459.3.9.3h2.29c.362,0,.737,0,.817-.3A.46.46,0,0,0,6.6,10.87a.362.362,0,0,1-.1-.17,3.323,3.323,0,0,1,.606-1.5,10.559,10.559,0,0,1,.632-.872c.1-.125.19-.243.277-.361l.139-.188a5.182,5.182,0,0,0,1.282-2.8A4.5,4.5,0,0,0,8.205,1.546M7.333,7.358l-.125.165q-.109.145-.219.288a5.693,5.693,0,0,0-1.422,2.9H3.881A6.128,6.128,0,0,0,2.4,7.7l-.157-.207-.089-.118A4.909,4.909,0,0,1,.957,5,3.606,3.606,0,0,1,2.07,2.009,3.7,3.7,0,0,1,4.735.913c.117,0,.237,0,.357.015a3.737,3.737,0,0,1,3.4,3.432,4.171,4.171,0,0,1-1.16,3" transform="translate(0 0)" fill="#f3b924"/>
        <path id="Caminho_78802" data-name="Caminho 78802" d="M193.424,781.019a3.566,3.566,0,0,0-.69-.045c-.171,0-.356,0-.535.007s-.361.007-.527.007l-.23,0-.253,0c-.3,0-.922,0-.952.392a.315.315,0,0,0,.1.268,1.331,1.331,0,0,0,.83.178c.146,0,.3-.005.448-.011s.284-.01.413-.01h.309c.241,0,.509,0,.736,0,.387,0,.753-.007.782-.359.026-.326-.239-.383-.433-.424" transform="translate(-187.322 -769.012)" fill="#f3b924"/>
        <path id="Caminho_78803" data-name="Caminho 78803" d="M192.391,853.739a1.649,1.649,0,0,0-.466-.045c-.115,0-.241,0-.362.007s-.244.007-.357.007l-.156,0-.171,0c-.2,0-.624,0-.644.393a.405.405,0,0,0,.07.268.677.677,0,0,0,.561.178c.1,0,.2-.005.3-.011s.192-.01.279-.01h.209c.163,0,.344,0,.5,0,.262,0,.509-.007.529-.358a.354.354,0,0,0-.293-.424" transform="translate(-186.735 -840.618)" fill="#f3b924"/>
      </g>
    </g>
    <rect id="Retângulo_8787" data-name="Retângulo 8787" width="6" height="1.5" transform="translate(953 743.5)" fill="#1e293b"/>
  </g>
</svg>
