<svg xmlns="http://www.w3.org/2000/svg" width="13.618" height="13.248" viewBox="0 0 13.618 13.248">
  <g id="Timeout" transform="translate(-1001.344 -940)">
    <path id="Relogio" d="M897.5,205.167V204H901v1.167h-3.5m1.167,6.416h1.166v-3.5h-1.166v3.5h0m.583,4.667a5.042,5.042,0,0,1-2.034-.416,5.324,5.324,0,0,1-2.8-2.8,5.18,5.18,0,0,1,0-4.068,5.324,5.324,0,0,1,2.8-2.8,5.042,5.042,0,0,1,2.034-.416,5.185,5.185,0,0,1,1.735.292,5.636,5.636,0,0,1,1.561.846l.817-.817.816.817-.816.816a5.659,5.659,0,0,1,.845,1.561A5.185,5.185,0,0,1,904.5,211a5.041,5.041,0,0,1-.416,2.034,5.324,5.324,0,0,1-2.8,2.8,5.042,5.042,0,0,1-2.034.416h0m0-1.167a4.082,4.082,0,1,0-2.888-1.2,3.93,3.93,0,0,0,2.888,1.2h0m0-4.083h0" transform="translate(109.753 736)" fill="#f23e5d"/>
    <g id="Retângulo_8789" data-name="Retângulo 8789" transform="matrix(0.695, -0.719, 0.719, 0.695, 1001.344, 941.439)" fill="#f23e5d" stroke="#101722" stroke-width="0.3">
      <rect width="2" height="17" stroke="none"/>
      <rect x="0.15" y="0.15" width="1.7" height="16.7" fill="none"/>
    </g>
  </g>
</svg>
